<svg width="70" height="55" viewBox="0 0 70 55" fill="none" xmlns="http://www.w3.org/2000/svg">
<path d="M9.75593 40.5208C10.2177 41.7772 10.9823 42.9002 11.9818 43.7905C12.9813 44.6807 14.1849 45.3108 15.4861 45.6248C16.7872 45.9388 18.1457 45.927 19.4413 45.5906C20.7368 45.2541 21.9294 44.6033 22.9133 43.6959C23.8973 42.7885 24.6423 41.6524 25.0823 40.3883C25.5223 39.1242 25.6438 37.771 25.4359 36.4488C25.2281 35.1265 24.6973 33.8759 23.8907 32.8077C23.0841 31.7395 22.0265 30.8868 20.8116 30.325L20.2853 31.4632C21.313 31.9384 22.2077 32.6598 22.89 33.5634C23.5723 34.467 24.0213 35.5249 24.1971 36.6435C24.373 37.762 24.2702 38.9067 23.898 39.976C23.5258 41.0454 22.8956 42.0065 22.0632 42.7741C21.2308 43.5417 20.222 44.0922 19.1261 44.3768C18.0301 44.6614 16.8809 44.6714 15.7802 44.4058C14.6795 44.1401 13.6613 43.6072 12.8158 42.8541C11.9703 42.101 11.3236 41.1509 10.9329 40.0882L9.75593 40.5208Z" fill="#21A980"/>
<rect x="41.9688" y="24.4875" width="28.0309" height="5.7398" fill="#D9D9D9"/>
<path d="M24.281 10.242C22.6893 8.78385 20.5835 8.01766 18.4269 8.11205C16.2703 8.20644 14.2396 9.15367 12.7814 10.7454C11.3232 12.337 10.557 14.4428 10.6514 16.5994C10.7458 18.756 11.693 20.7868 13.2847 22.245L14.1318 21.3204C12.7853 20.0868 11.984 18.3689 11.9042 16.5446C11.8243 14.7202 12.4725 12.9389 13.706 11.5924C14.9395 10.246 16.6574 9.4447 18.4818 9.36485C20.3061 9.285 22.0874 9.93314 23.4339 11.1667L24.281 10.242Z" fill="#50BFA5"/>
<path d="M0.443022 38.1562C0.530779 41.3746 1.57093 44.4947 3.43193 47.1219C5.29294 49.7492 7.89122 51.7655 10.8982 52.9161C13.9052 54.0666 17.1858 54.2997 20.3253 53.5857C23.4647 52.8718 26.3219 51.2429 28.5356 48.9051C30.7493 46.5673 32.22 43.6256 32.7618 40.4519C33.3036 37.2783 32.8922 34.0152 31.5795 31.0754C30.2668 28.1356 28.1118 25.651 25.387 23.9359C22.6623 22.2209 19.4902 21.3523 16.2718 21.4401L16.4363 27.473C18.4615 27.4178 20.4575 27.9644 22.1721 29.0436C23.8866 30.1228 25.2427 31.6862 26.0687 33.5361C26.8947 35.386 27.1536 37.4393 26.8127 39.4363C26.4718 41.4333 25.5463 43.2844 24.1533 44.7555C22.7603 46.2266 20.9624 47.2515 18.9869 47.7008C17.0114 48.15 14.9471 48.0034 13.0549 47.2794C11.1628 46.5554 9.52782 45.2866 8.35678 43.6334C7.18573 41.9802 6.53122 40.0169 6.47599 37.9917L0.443022 38.1562Z" fill="#03CC71"/>
<rect x="49.4395" y="31.3267" width="13.0228" height="1.30228" fill="#21A980"/>
<path d="M35.0086 13.1542C34.2268 10.2438 32.6524 7.60744 30.4608 5.5389C28.2692 3.47037 25.5464 2.05082 22.5956 1.43838C19.6448 0.825941 16.582 1.04464 13.7482 2.07013C10.9144 3.09562 8.42085 4.88763 6.54536 7.24658C4.66987 9.60553 3.48603 12.4388 3.1257 15.4308C2.76537 18.4229 3.24269 21.4562 4.5045 24.193C5.76631 26.9297 7.76307 29.2625 10.2724 30.9315C12.7817 32.6004 15.7051 33.5401 18.7169 33.6457L18.9284 27.6142C17.0332 27.5477 15.1937 26.9565 13.6147 25.9063C12.0357 24.8561 10.7792 23.3882 9.98523 21.666C9.19124 19.9439 8.89088 18.0352 9.11762 16.1524C9.34436 14.2697 10.0893 12.4869 11.2694 11.0025C12.4496 9.51811 14.0187 8.39048 15.8018 7.74519C17.585 7.0999 19.5123 6.96228 21.3691 7.34766C23.2259 7.73304 24.9392 8.62629 26.3183 9.92792C27.6974 11.2296 28.6881 12.8885 29.18 14.7199L35.0086 13.1542Z" fill="#21A980"/>
<rect x="61.8105" y="47.6052" width="16.2785" height="1.30228" transform="rotate(-90 61.8105 47.6052)" fill="#50BFA5"/>
<rect x="41.9688" y="1.7832" width="5.74055" height="52.6455" fill="#21A980"/>
<rect x="64.2598" y="1.7832" width="5.7398" height="52.6455" fill="#03CC71"/>
<rect x="49.4395" y="22.0857" width="13.0228" height="1.30228" fill="#21A980"/>
<rect x="61.8105" y="23.3879" width="16.2785" height="1.30228" transform="rotate(-90 61.8105 23.3879)" fill="#1EEB8B"/>
<rect x="48.7871" y="23.3879" width="16.2785" height="1.30228" transform="rotate(-90 48.7871 23.3879)" fill="#50BFA5"/>
<rect x="48.7871" y="47.6052" width="16.2785" height="1.30228" transform="rotate(-90 48.7871 47.6052)" fill="#1EEB8B"/>
<rect x="47.709" y="24.4875" width="8.27599" height="5.7398" fill="#21A980"/>
<rect x="55.9863" y="24.4875" width="8.27599" height="5.7398" fill="#03CC71"/>
</svg>
